<?xml version="1.0" encoding="UTF-8" standalone="no"?>
<!DOCTYPE svg PUBLIC "-//W3C//DTD SVG 1.1//EN" "http://www.w3.org/Graphics/SVG/1.1/DTD/svg11.dtd">
<!-- Created with Vectornator (http://vectornator.io/) -->
<svg height="100%" stroke-miterlimit="10" style="fill-rule:nonzero;clip-rule:evenodd;stroke-linecap:round;stroke-linejoin:round;" version="1.1" viewBox="0 0 597.888 596.338" width="100%" xml:space="preserve" xmlns="http://www.w3.org/2000/svg" xmlns:vectornator="http://vectornator.io" xmlns:xlink="http://www.w3.org/1999/xlink">
<defs/>
<clipPath id="ArtboardFrame">
<rect height="596.338" width="597.888" x="0" y="0"/>
</clipPath>
<g clip-path="url(#ArtboardFrame)" id="Layer-1" vectornator:layerName="Layer 1">
<path d="M120.403-1.782L477.242-1.782C543.739-1.782 597.645 52.1243 597.645 118.621L597.645 475.46C597.645 541.957 543.739 595.863 477.242 595.863L120.403 595.863C53.9063 595.863 0 541.957 0 475.46L0 118.621C0 52.1243 53.9063-1.782 120.403-1.782Z" fill="#242424" fill-rule="nonzero" opacity="1" stroke="none"/>
<g opacity="1">
<path d="M35.5879 152.77L88.6982 152.77C124.105 152.77 148.076 154.136 160.611 156.869C173.146 159.601 183.364 166.582 191.265 177.81C199.167 189.038 203.117 206.949 203.117 231.544C203.117 254 200.325 269.089 194.741 276.812C189.156 284.535 178.166 289.169 161.77 290.714C176.621 294.397 186.602 299.328 191.711 305.506C196.82 311.685 199.998 317.358 201.246 322.527C202.493 327.695 203.117 341.923 203.117 365.211L203.117 441.312L133.432 441.312L133.432 345.428C133.432 329.982 132.214 320.418 129.779 316.734C127.343 313.051 120.957 311.209 110.62 311.209L110.62 441.312L35.5879 441.312L35.5879 152.77ZM110.62 202.137L110.62 266.297C119.055 266.297 124.967 265.139 128.353 262.822C131.739 260.505 133.432 252.99 133.432 240.277L133.432 224.415C133.432 215.266 131.798 209.266 128.531 206.415C125.264 203.563 119.293 202.137 110.62 202.137Z" fill="#ffffff" fill-rule="nonzero" opacity="1" stroke="none"/>
<path d="M383.3 152.77L383.3 210.514L338.745 210.514L338.745 441.312L263.713 441.312L263.713 210.514L219.335 210.514L219.335 152.77L383.3 152.77Z" fill="#ffffff" fill-rule="nonzero" opacity="1" stroke="none"/>
<path d="M400.41 152.77L475.976 152.77C496.412 152.77 512.126 154.374 523.116 157.582C534.106 160.79 542.364 165.423 547.889 171.483C553.414 177.542 557.156 184.879 559.117 193.493C561.077 202.107 562.058 215.444 562.058 233.504L562.058 258.634C562.058 277.05 560.157 290.476 556.354 298.912C552.552 307.348 545.572 313.823 535.413 318.338C525.255 322.853 511.977 325.111 495.581 325.111L475.441 325.111L475.441 441.312L400.41 441.312L400.41 152.77ZM475.441 202.137L475.441 275.565C477.58 275.684 479.422 275.743 480.966 275.743C487.858 275.743 492.64 274.05 495.313 270.664C497.987 267.278 499.323 260.238 499.323 249.544L499.323 225.841C499.323 215.979 497.779 209.563 494.689 206.593C491.6 203.622 485.184 202.137 475.441 202.137Z" fill="#ffffff" fill-rule="nonzero" opacity="1" stroke="none"/>
</g>
</g>
</svg>
