<?xml version="1.0" encoding="UTF-8" standalone="no"?>
<!DOCTYPE svg PUBLIC "-//W3C//DTD SVG 1.1//EN" "http://www.w3.org/Graphics/SVG/1.1/DTD/svg11.dtd">
<!-- Created with Vectornator (http://vectornator.io/) -->
<svg height="100%" stroke-miterlimit="10" style="fill-rule:nonzero;clip-rule:evenodd;stroke-linecap:round;stroke-linejoin:round;" version="1.1" viewBox="0 0 597.888 596.338" width="100%" xml:space="preserve" xmlns="http://www.w3.org/2000/svg" xmlns:vectornator="http://vectornator.io" xmlns:xlink="http://www.w3.org/1999/xlink">
<defs/>
<clipPath id="ArtboardFrame">
<rect height="596.338" width="597.888" x="0" y="0"/>
</clipPath>
<g clip-path="url(#ArtboardFrame)" id="Layer-1" vectornator:layerName="Layer 1">
<g opacity="1">
<path d="M120.403-1.782L477.242-1.782C543.739-1.782 597.645 52.1243 597.645 118.621L597.645 475.46C597.645 541.957 543.739 595.863 477.242 595.863L120.403 595.863C53.9063 595.863 0 541.957 0 475.46L0 118.621C0 52.1243 53.9063-1.782 120.403-1.782Z" fill="#242424" fill-rule="nonzero" opacity="1" stroke="none"/>
<g opacity="1">
<g opacity="1">
<g opacity="1">
<g opacity="1">
<path d="M208.908 362.132L155.296 331.179L155.296 269.274L208.908 238.321L262.52 269.274L262.52 331.179L230.669 349.569L208.908 362.132Z" fill="none" opacity="1" stroke="#ffffff" stroke-linecap="butt" stroke-linejoin="round" stroke-width="10"/>
<path d="M208.908 362.132L155.296 331.179L155.296 269.274L208.908 238.321L262.52 269.274L262.52 331.179L230.669 349.569L208.908 362.132Z" fill="none" opacity="1" stroke="#242424" stroke-linecap="butt" stroke-linejoin="round" stroke-width="4.41332"/>
</g>
<path d="M175.856 300.226C175.856 281.972 190.654 267.174 208.908 267.174C227.162 267.174 241.96 281.972 241.96 300.226C241.96 318.481 227.162 333.279 208.908 333.279C190.654 333.279 175.856 318.481 175.856 300.226Z" fill="#242424" fill-rule="nonzero" opacity="1" stroke="#ffffff" stroke-linecap="butt" stroke-linejoin="round" stroke-width="4.41332"/>
</g>
</g>
<g opacity="1">
<g opacity="1">
<g opacity="1">
<path d="M400.658 362.132L347.046 331.179L347.046 269.274L400.658 238.321L454.27 269.274L454.27 331.179L422.419 349.569L400.658 362.132Z" fill="none" opacity="1" stroke="#ffffff" stroke-linecap="butt" stroke-linejoin="round" stroke-width="10"/>
<path d="M400.658 362.132L347.046 331.179L347.046 269.274L400.658 238.321L454.27 269.274L454.27 331.179L422.419 349.569L400.658 362.132Z" fill="none" opacity="1" stroke="#242424" stroke-linecap="butt" stroke-linejoin="round" stroke-width="4.41332"/>
</g>
<path d="M367.605 300.226C367.605 281.972 382.403 267.174 400.658 267.174C418.912 267.174 433.71 281.972 433.71 300.226C433.71 318.481 418.912 333.279 400.658 333.279C382.403 333.279 367.605 318.481 367.605 300.226Z" fill="#242424" fill-rule="nonzero" opacity="1" stroke="#ffffff" stroke-linecap="butt" stroke-linejoin="round" stroke-width="4.41332"/>
</g>
</g>
<g opacity="1">
<g opacity="1">
<path d="M453.976 267.203L493.254 234.304" fill="none" opacity="1" stroke="#ffffff" stroke-linecap="round" stroke-linejoin="round" stroke-width="4.41332"/>
<path d="M531.704 259.031L493.561 234.374" fill="none" opacity="1" stroke="#ffffff" stroke-linecap="round" stroke-linejoin="round" stroke-width="4.41332"/>
<path d="M532.682 259.932L582.742 214.251" fill="none" opacity="1" stroke="#ffffff" stroke-linecap="round" stroke-linejoin="round" stroke-width="4.41332"/>
</g>
<g opacity="1">
<path d="M152.793 267.437L114.004 234.948" fill="none" opacity="1" stroke="#ffffff" stroke-linecap="round" stroke-linejoin="round" stroke-width="4.41332"/>
<path d="M76.0331 259.367L113.701 235.017" fill="none" opacity="1" stroke="#ffffff" stroke-linecap="round" stroke-linejoin="round" stroke-width="4.41332"/>
<path d="M75.0675 260.256L25.6315 215.145" fill="none" opacity="1" stroke="#ffffff" stroke-linecap="round" stroke-linejoin="round" stroke-width="4.41332"/>
</g>
<path d="M261.09 329.885L305.712 356.771" fill="none" opacity="1" stroke="#ffffff" stroke-linecap="butt" stroke-linejoin="round" stroke-width="4.41332"/>
<path d="M346.157 334.52L305.257 354.805" fill="none" opacity="1" stroke="#ffffff" stroke-linecap="butt" stroke-linejoin="round" stroke-width="4.41332"/>
<path d="M272.376 424.176L304.507 354.49" fill="none" opacity="1" stroke="#ffffff" stroke-linecap="butt" stroke-linejoin="round" stroke-width="4.41332"/>
<path d="M304.535 355.714L335.644 423.884" fill="none" opacity="1" stroke="#ffffff" stroke-linecap="butt" stroke-linejoin="round" stroke-width="4.41332"/>
<g opacity="1">
<g opacity="1">
<path d="M196.965 241.163C196.965 233.576 203.116 227.425 210.704 227.425C218.292 227.425 224.443 233.576 224.443 241.163C224.443 248.751 218.292 254.902 210.704 254.902C203.116 254.902 196.965 248.751 196.965 241.163Z" fill="#737373" fill-rule="nonzero" opacity="1" stroke="#ffffff" stroke-linecap="butt" stroke-linejoin="round" stroke-width="3"/>
</g>
<g opacity="1">
<path d="M143.745 269.032C143.745 261.444 149.896 255.293 157.484 255.293C165.072 255.293 171.223 261.444 171.223 269.032C171.223 276.62 165.072 282.771 157.484 282.771C149.896 282.771 143.745 276.62 143.745 269.032Z" fill="#737373" fill-rule="nonzero" opacity="1" stroke="#ffffff" stroke-linecap="butt" stroke-linejoin="round" stroke-width="3"/>
</g>
<g opacity="1">
<path d="M140.726 331.526C140.726 323.939 146.877 317.788 154.465 317.788C162.053 317.788 168.204 323.939 168.204 331.526C168.204 339.114 162.053 345.265 154.465 345.265C146.877 345.265 140.726 339.114 140.726 331.526Z" fill="#737373" fill-rule="nonzero" opacity="1" stroke="#ffffff" stroke-linecap="butt" stroke-linejoin="round" stroke-width="3"/>
</g>
<g opacity="1">
<path d="M194.824 360.032C194.824 352.445 200.975 346.294 208.563 346.294C216.151 346.294 222.302 352.445 222.302 360.032C222.302 367.62 216.151 373.771 208.563 373.771C200.975 373.771 194.824 367.62 194.824 360.032Z" fill="#737373" fill-rule="nonzero" opacity="1" stroke="#ffffff" stroke-linecap="butt" stroke-linejoin="round" stroke-width="3"/>
</g>
<g opacity="1">
<path d="M246.677 329.514C246.677 321.926 252.828 315.775 260.416 315.775C268.003 315.775 274.155 321.926 274.155 329.514C274.155 337.102 268.003 343.253 260.416 343.253C252.828 343.253 246.677 337.102 246.677 329.514Z" fill="#737373" fill-rule="nonzero" opacity="1" stroke="#ffffff" stroke-linecap="butt" stroke-linejoin="round" stroke-width="3"/>
</g>
<g opacity="1">
<path d="M247.889 266.864C247.889 259.277 254.04 253.125 261.628 253.125C269.216 253.125 275.367 259.277 275.367 266.864C275.367 274.452 269.216 280.603 261.628 280.603C254.04 280.603 247.889 274.452 247.889 266.864Z" fill="#737373" fill-rule="nonzero" opacity="1" stroke="#ffffff" stroke-linecap="butt" stroke-linejoin="round" stroke-width="3"/>
</g>
</g>
<g opacity="1">
<g opacity="1">
<path d="M387.878 241.163C387.878 233.576 394.029 227.425 401.617 227.425C409.204 227.425 415.355 233.576 415.355 241.163C415.355 248.751 409.204 254.902 401.617 254.902C394.029 254.902 387.878 248.751 387.878 241.163Z" fill="#737373" fill-rule="nonzero" opacity="1" stroke="#ffffff" stroke-linecap="butt" stroke-linejoin="round" stroke-width="3"/>
</g>
<g opacity="1">
<path d="M334.658 269.032C334.658 261.444 340.809 255.293 348.397 255.293C355.984 255.293 362.135 261.444 362.135 269.032C362.135 276.62 355.984 282.771 348.397 282.771C340.809 282.771 334.658 276.62 334.658 269.032Z" fill="#737373" fill-rule="nonzero" opacity="1" stroke="#ffffff" stroke-linecap="butt" stroke-linejoin="round" stroke-width="3"/>
</g>
<g opacity="1">
<path d="M331.639 331.526C331.639 323.939 337.79 317.788 345.378 317.788C352.965 317.788 359.117 323.939 359.117 331.526C359.117 339.114 352.965 345.265 345.378 345.265C337.79 345.265 331.639 339.114 331.639 331.526Z" fill="#737373" fill-rule="nonzero" opacity="1" stroke="#ffffff" stroke-linecap="butt" stroke-linejoin="round" stroke-width="3"/>
</g>
<g opacity="1">
<path d="M385.737 360.032C385.737 352.445 391.888 346.294 399.476 346.294C407.064 346.294 413.215 352.445 413.215 360.032C413.215 367.62 407.064 373.771 399.476 373.771C391.888 373.771 385.737 367.62 385.737 360.032Z" fill="#737373" fill-rule="nonzero" opacity="1" stroke="#ffffff" stroke-linecap="butt" stroke-linejoin="round" stroke-width="3"/>
</g>
<g opacity="1">
<path d="M437.59 329.514C437.59 321.926 443.741 315.775 451.328 315.775C458.916 315.775 465.067 321.926 465.067 329.514C465.067 337.102 458.916 343.253 451.328 343.253C443.741 343.253 437.59 337.102 437.59 329.514Z" fill="#737373" fill-rule="nonzero" opacity="1" stroke="#ffffff" stroke-linecap="butt" stroke-linejoin="round" stroke-width="3"/>
</g>
<g opacity="1">
<path d="M438.802 266.864C438.802 259.277 444.953 253.125 452.541 253.125C460.128 253.125 466.279 259.277 466.279 266.864C466.279 274.452 460.128 280.603 452.541 280.603C444.953 280.603 438.802 274.452 438.802 266.864Z" fill="#737373" fill-rule="nonzero" opacity="1" stroke="#ffffff" stroke-linecap="butt" stroke-linejoin="round" stroke-width="3"/>
</g>
</g>
</g>
</g>
<g opacity="1">
<path d="M530.369 108.448L497.394 149.174L431.445 149.174L398.47 108.448L431.445 67.7217L497.394 67.7217L530.369 108.448Z" fill="#f06c14" fill-rule="nonzero" opacity="1" stroke="none"/>
<g opacity="1">
<path d="M444.729 89.202C448.405 89.202 451.256 90.1702 453.285 92.1066C455.314 94.0431 456.44 96.243 456.664 98.7063L452.831 98.7063C452.396 96.8357 451.53 95.3538 450.232 94.2604C448.935 93.1671 447.114 92.6204 444.769 92.6204C441.91 92.6204 439.602 93.6248 437.843 95.6337C436.085 97.6426 435.205 100.722 435.205 104.871C435.205 108.27 435.999 111.026 437.586 113.141C439.174 115.255 441.541 116.312 444.69 116.312C447.588 116.312 449.794 115.199 451.309 112.973C452.113 111.8 452.712 110.259 453.107 108.349L456.941 108.349C456.598 111.405 455.465 113.967 453.542 116.035C451.237 118.525 448.128 119.77 444.216 119.77C440.843 119.77 438.011 118.749 435.719 116.707C432.702 114.007 431.194 109.837 431.194 104.199C431.194 99.9182 432.327 96.4076 434.593 93.6676C437.043 90.6906 440.422 89.202 444.729 89.202Z" fill="#ffffff" fill-rule="nonzero" opacity="1" stroke="none"/>
<path d="M474.467 97.8566L478.399 97.8566C477.899 99.2135 476.786 102.309 475.06 107.144C473.769 110.779 472.689 113.743 471.819 116.035C469.764 121.436 468.315 124.729 467.472 125.915C466.629 127.101 465.18 127.693 463.125 127.693C462.625 127.693 462.239 127.674 461.969 127.634C461.699 127.595 461.367 127.522 460.972 127.417L460.972 124.176C461.591 124.347 462.039 124.453 462.315 124.492C462.592 124.532 462.835 124.552 463.046 124.552C463.705 124.552 464.189 124.443 464.499 124.226C464.808 124.008 465.068 123.741 465.279 123.425C465.345 123.32 465.582 122.78 465.99 121.805C466.399 120.83 466.695 120.106 466.88 119.632L459.055 97.8566L463.086 97.8566L468.757 115.087L474.467 97.8566Z" fill="#ffffff" fill-rule="nonzero" opacity="1" stroke="none"/>
<path d="M483.596 112.38C483.701 113.565 483.998 114.474 484.485 115.107C485.381 116.253 486.935 116.826 489.148 116.826C490.466 116.826 491.625 116.539 492.626 115.966C493.627 115.393 494.128 114.507 494.128 113.309C494.128 112.4 493.726 111.708 492.923 111.234C492.409 110.944 491.394 110.608 489.88 110.226L487.054 109.515C485.249 109.067 483.919 108.566 483.063 108.013C481.534 107.051 480.77 105.721 480.77 104.022C480.77 102.019 481.492 100.399 482.934 99.1608C484.377 97.9225 486.316 97.3034 488.753 97.3034C491.941 97.3034 494.24 98.2387 495.649 100.109C496.532 101.295 496.96 102.573 496.934 103.943L493.575 103.943C493.509 103.139 493.225 102.408 492.725 101.749C491.908 100.814 490.492 100.346 488.477 100.346C487.133 100.346 486.115 100.603 485.424 101.117C484.732 101.631 484.386 102.309 484.386 103.152C484.386 104.074 484.841 104.812 485.75 105.365C486.277 105.695 487.054 105.984 488.081 106.235L490.433 106.808C492.988 107.427 494.701 108.026 495.57 108.606C496.953 109.515 497.645 110.944 497.645 112.894C497.645 114.777 496.93 116.404 495.501 117.774C494.072 119.144 491.895 119.829 488.971 119.829C485.822 119.829 483.593 119.114 482.282 117.685C480.971 116.256 480.27 114.487 480.178 112.38L483.596 112.38Z" fill="#ffffff" fill-rule="nonzero" opacity="1" stroke="none"/>
</g>
</g>
<g opacity="1">
<path d="M170.114 431.661L137.14 472.387L71.1901 472.387L38.2154 431.661L71.1901 390.935L137.14 390.935L170.114 431.661Z" fill="#67a3dd" fill-rule="nonzero" opacity="1" stroke="none"/>
<g opacity="1">
<path d="M75.9187 416.348C78.6455 416.348 81.0035 416.875 82.9926 417.928C85.8775 419.443 87.6426 422.098 88.2881 425.891L84.3955 425.891C83.9213 423.771 82.9399 422.226 81.4513 421.258C79.9628 420.29 78.0857 419.806 75.8199 419.806C73.1326 419.806 70.8702 420.813 69.0326 422.829C67.1949 424.844 66.2761 427.848 66.2761 431.839C66.2761 435.29 67.0336 438.1 68.5484 440.266C70.0633 442.433 72.5333 443.517 75.9582 443.517C78.5796 443.517 80.7499 442.756 82.469 441.235C84.188 439.713 85.0673 437.253 85.1068 433.855L76.0175 433.855L76.0175 430.594L88.7623 430.594L88.7623 446.125L86.2331 446.125L85.2847 442.391C83.9542 443.853 82.7752 444.867 81.7477 445.434C80.0221 446.408 77.8288 446.896 75.1679 446.896C71.7297 446.896 68.7724 445.783 66.2959 443.556C63.5954 440.764 62.2452 436.93 62.2452 432.056C62.2452 427.196 63.5625 423.329 66.1971 420.458C68.6999 417.718 71.9405 416.348 75.9187 416.348Z" fill="#ffffff" fill-rule="nonzero" opacity="1" stroke="none"/>
<path d="M94.947 417.099L98.9187 417.099L98.9187 429.093L114.015 429.093L114.015 417.099L117.987 417.099L117.987 446.125L114.015 446.125L114.015 432.55L98.9187 432.55L98.9187 446.125L94.947 446.125L94.947 417.099Z" fill="#ffffff" fill-rule="nonzero" opacity="1" stroke="none"/>
<path d="M126.641 436.759C126.733 438.406 127.122 439.743 127.807 440.77C129.111 442.694 131.41 443.655 134.703 443.655C136.178 443.655 137.522 443.444 138.734 443.023C141.079 442.206 142.251 440.744 142.251 438.636C142.251 437.056 141.757 435.929 140.769 435.257C139.768 434.599 138.2 434.026 136.066 433.538L132.134 432.649C129.566 432.07 127.748 431.431 126.681 430.733C124.836 429.521 123.914 427.709 123.914 425.299C123.914 422.69 124.817 420.55 126.621 418.877C128.426 417.204 130.982 416.367 134.288 416.367C137.331 416.367 139.916 417.102 142.044 418.571C144.171 420.039 145.235 422.387 145.235 425.615L141.54 425.615C141.342 424.06 140.921 422.868 140.275 422.038C139.076 420.524 137.041 419.766 134.169 419.766C131.851 419.766 130.185 420.253 129.17 421.228C128.156 422.203 127.649 423.336 127.649 424.627C127.649 426.05 128.242 427.09 129.427 427.749C130.204 428.17 131.963 428.697 134.703 429.33L138.773 430.258C140.736 430.706 142.251 431.319 143.318 432.096C145.162 433.453 146.084 435.422 146.084 438.004C146.084 441.218 144.915 443.517 142.577 444.9C140.239 446.283 137.522 446.975 134.426 446.975C130.817 446.975 127.991 446.053 125.95 444.208C123.908 442.377 122.907 439.894 122.946 436.759L126.641 436.759Z" fill="#ffffff" fill-rule="nonzero" opacity="1" stroke="none"/>
</g>
</g>
<g opacity="1">
<path d="M305.157 127.901L327.92 141.408L366.153 164.094L342.855 222.656L267.46 222.656L256.69 195.585L244.162 164.094L305.157 127.901Z" fill="#79b651" fill-rule="nonzero" opacity="1" stroke="none"/>
<g fill="#ffffff" opacity="1" stroke="none">
<path d="M282.051 165.264C284.477 165.264 286.574 165.733 288.344 166.67C290.91 168.018 292.481 170.379 293.055 173.754L289.592 173.754C289.17 171.868 288.297 170.494 286.973 169.632C285.649 168.771 283.979 168.34 281.963 168.34C279.572 168.34 277.56 169.237 275.925 171.03C274.29 172.823 273.473 175.495 273.473 179.045C273.473 182.116 274.147 184.615 275.494 186.542C276.842 188.47 279.039 189.434 282.086 189.434C284.418 189.434 286.349 188.757 287.878 187.404C289.407 186.05 290.19 183.862 290.225 180.838L282.139 180.838L282.139 177.938L293.477 177.938L293.477 191.754L291.227 191.754L290.383 188.432C289.199 189.733 288.151 190.635 287.237 191.139C285.701 192.006 283.75 192.44 281.383 192.44C278.324 192.44 275.694 191.45 273.49 189.469C271.088 186.985 269.887 183.575 269.887 179.239C269.887 174.914 271.059 171.475 273.403 168.92C275.629 166.483 278.512 165.264 282.051 165.264Z" fill="#ffffff"/>
<path d="M298.557 165.932L301.721 165.932L301.721 191.754L298.557 191.754L298.557 165.932Z" fill="#ffffff"/>
<path d="M309.631 172.928L309.631 185.426C309.631 186.387 309.783 187.172 310.088 187.782C310.651 188.907 311.699 189.469 313.235 189.469C315.438 189.469 316.938 188.485 317.735 186.516C318.168 185.461 318.385 184.014 318.385 182.174L318.385 172.928L321.549 172.928L321.549 191.754L318.561 191.754L318.596 188.977C318.186 189.692 317.676 190.295 317.067 190.788C315.86 191.772 314.395 192.264 312.672 192.264C309.989 192.264 308.16 191.368 307.188 189.575C306.66 188.614 306.397 187.331 306.397 185.725L306.397 172.928L309.631 172.928Z" fill="#ffffff"/>
<path d="M333.748 172.383C335.869 172.383 337.595 172.899 338.925 173.93C340.255 174.961 341.055 176.737 341.324 179.256L338.248 179.256C338.061 178.096 337.633 177.132 336.965 176.365C336.297 175.597 335.225 175.213 333.748 175.213C331.733 175.213 330.291 176.198 329.424 178.166C328.862 179.444 328.58 181.02 328.58 182.895C328.58 184.782 328.979 186.37 329.776 187.659C330.572 188.948 331.826 189.592 333.537 189.592C334.85 189.592 335.89 189.191 336.657 188.388C337.425 187.585 337.955 186.487 338.248 185.092L341.324 185.092C340.973 187.588 340.094 189.414 338.688 190.568C337.281 191.722 335.483 192.299 333.291 192.299C330.83 192.299 328.867 191.4 327.403 189.601C325.938 187.802 325.205 185.555 325.205 182.86C325.205 179.555 326.008 176.983 327.614 175.143C329.219 173.303 331.264 172.383 333.748 172.383Z" fill="#ffffff"/>
</g>
</g>
<g opacity="1">
<path d="M433.405 436.222C433.405 414.845 461.631 397.515 496.448 397.515C531.266 397.515 559.492 414.845 559.492 436.222C559.492 457.6 531.266 474.93 496.448 474.93C461.631 474.93 433.405 457.6 433.405 436.222Z" fill="#ff9aff" fill-rule="nonzero" opacity="1" stroke="none"/>
<g opacity="1">
<path d="M451.064 440.242C451.137 441.543 451.444 442.6 451.985 443.412C453.016 444.931 454.832 445.691 457.434 445.691C458.6 445.691 459.661 445.524 460.619 445.191C462.472 444.546 463.398 443.391 463.398 441.726C463.398 440.477 463.008 439.587 462.227 439.056C461.436 438.535 460.197 438.083 458.511 437.698L455.405 436.995C453.375 436.537 451.939 436.032 451.096 435.481C449.638 434.523 448.91 433.092 448.91 431.187C448.91 429.127 449.623 427.435 451.049 426.113C452.475 424.792 454.494 424.131 457.106 424.131C459.511 424.131 461.553 424.711 463.234 425.871C464.915 427.032 465.755 428.887 465.755 431.437L462.836 431.437C462.68 430.209 462.347 429.267 461.837 428.611C460.89 427.414 459.282 426.816 457.013 426.816C455.181 426.816 453.864 427.201 453.063 427.971C452.261 428.741 451.861 429.636 451.861 430.656C451.861 431.781 452.329 432.603 453.266 433.123C453.88 433.456 455.269 433.873 457.434 434.372L460.65 435.106C462.201 435.46 463.398 435.944 464.241 436.558C465.698 437.63 466.427 439.186 466.427 441.226C466.427 443.766 465.503 445.582 463.656 446.675C461.808 447.767 459.661 448.314 457.216 448.314C454.364 448.314 452.131 447.585 450.518 446.128C448.905 444.681 448.114 442.72 448.145 440.242L451.064 440.242Z" fill="#ffffff" fill-rule="nonzero" opacity="1" stroke="none"/>
<path d="M472.796 430.922L472.796 442.022C472.796 442.876 472.932 443.573 473.202 444.114C473.702 445.113 474.634 445.613 475.997 445.613C477.954 445.613 479.286 444.739 479.994 442.99C480.379 442.053 480.571 440.768 480.571 439.134L480.571 430.922L483.382 430.922L483.382 447.643L480.727 447.643L480.759 445.176C480.394 445.811 479.942 446.347 479.4 446.784C478.328 447.658 477.027 448.095 475.497 448.095C473.114 448.095 471.49 447.299 470.626 445.707C470.158 444.853 469.924 443.713 469.924 442.288L469.924 430.922L472.796 430.922Z" fill="#ffffff" fill-rule="nonzero" opacity="1" stroke="none"/>
<path d="M487.847 424.708L490.657 424.708L490.657 447.643L487.847 447.643L487.847 424.708Z" fill="#ffffff" fill-rule="nonzero" opacity="1" stroke="none"/>
<path d="M495.575 428.377C495.616 427.211 495.819 426.358 496.184 425.817C496.839 424.859 498.104 424.38 499.977 424.38C500.154 424.38 500.336 424.386 500.524 424.396C500.711 424.406 500.924 424.422 501.164 424.443L501.164 427.003C500.872 426.982 500.662 426.969 500.532 426.964C500.401 426.959 500.279 426.956 500.165 426.956C499.311 426.956 498.801 427.178 498.635 427.62C498.468 428.062 498.385 429.189 498.385 431L501.164 431L501.164 433.217L498.354 433.217L498.354 447.643L495.575 447.643L495.575 433.217L493.248 433.217L493.248 431L495.575 431L495.575 428.377Z" fill="#ffffff" fill-rule="nonzero" opacity="1" stroke="none"/>
<path d="M505.91 443.193C505.91 444.005 506.207 444.645 506.8 445.113C507.393 445.582 508.096 445.816 508.907 445.816C509.896 445.816 510.854 445.587 511.78 445.129C513.341 444.369 514.122 443.125 514.122 441.398L514.122 439.134C513.778 439.352 513.336 439.535 512.795 439.68C512.254 439.826 511.723 439.93 511.202 439.993L509.501 440.211C508.481 440.346 507.716 440.56 507.206 440.851C506.342 441.34 505.91 442.121 505.91 443.193ZM512.717 437.51C513.362 437.427 513.794 437.156 514.013 436.698C514.138 436.449 514.2 436.09 514.2 435.621C514.2 434.664 513.859 433.969 513.177 433.537C512.496 433.105 511.52 432.889 510.25 432.889C508.783 432.889 507.742 433.285 507.128 434.076C506.784 434.513 506.56 435.163 506.456 436.027L503.833 436.027C503.886 433.966 504.554 432.533 505.84 431.726C507.125 430.919 508.616 430.516 510.313 430.516C512.28 430.516 513.877 430.891 515.105 431.64C516.323 432.389 516.932 433.555 516.932 435.137L516.932 444.77C516.932 445.061 516.992 445.296 517.112 445.472C517.231 445.649 517.484 445.738 517.869 445.738C517.994 445.738 518.134 445.73 518.29 445.714C518.446 445.699 518.613 445.675 518.79 445.644L518.79 447.721C518.353 447.846 518.02 447.924 517.791 447.955C517.562 447.986 517.25 448.002 516.854 448.002C515.886 448.002 515.184 447.658 514.746 446.971C514.517 446.607 514.356 446.092 514.262 445.426C513.69 446.175 512.868 446.826 511.796 447.377C510.724 447.929 509.542 448.205 508.252 448.205C506.701 448.205 505.434 447.734 504.45 446.792C503.467 445.85 502.975 444.671 502.975 443.256C502.975 441.705 503.459 440.503 504.427 439.649C505.395 438.796 506.664 438.27 508.236 438.072L512.717 437.51Z" fill="#ffffff" fill-rule="nonzero" opacity="1" stroke="none"/>
<path d="M522.1 426.254L524.941 426.254L524.941 430.922L527.611 430.922L527.611 433.217L524.941 433.217L524.941 444.13C524.941 444.713 525.139 445.103 525.534 445.301C525.753 445.415 526.117 445.472 526.627 445.472C526.763 445.472 526.908 445.47 527.064 445.465C527.221 445.459 527.403 445.446 527.611 445.426L527.611 447.643C527.288 447.736 526.953 447.804 526.604 447.846C526.255 447.887 525.878 447.908 525.472 447.908C524.161 447.908 523.271 447.572 522.802 446.901C522.334 446.23 522.1 445.358 522.1 444.286L522.1 433.217L519.836 433.217L519.836 430.922L522.1 430.922L522.1 426.254Z" fill="#ffffff" fill-rule="nonzero" opacity="1" stroke="none"/>
<path d="M537.384 430.547C538.571 430.547 539.721 430.826 540.834 431.382C541.948 431.939 542.796 432.66 543.379 433.545C543.941 434.388 544.316 435.371 544.503 436.495C544.67 437.266 544.753 438.494 544.753 440.18L532.497 440.18C532.549 441.876 532.95 443.237 533.7 444.263C534.449 445.288 535.609 445.8 537.181 445.8C538.649 445.8 539.82 445.316 540.694 444.348C541.193 443.786 541.547 443.136 541.755 442.397L544.519 442.397C544.446 443.011 544.204 443.695 543.793 444.45C543.382 445.204 542.921 445.821 542.411 446.3C541.558 447.133 540.501 447.695 539.242 447.986C538.565 448.153 537.8 448.236 536.947 448.236C534.865 448.236 533.101 447.479 531.654 445.964C530.208 444.45 529.484 442.329 529.484 439.602C529.484 436.917 530.213 434.736 531.67 433.061C533.127 431.385 535.032 430.547 537.384 430.547ZM541.865 437.947C541.75 436.73 541.485 435.756 541.069 435.028C540.298 433.675 539.013 432.998 537.212 432.998C535.922 432.998 534.839 433.464 533.965 434.396C533.091 435.327 532.628 436.511 532.576 437.947L541.865 437.947Z" fill="#ffffff" fill-rule="nonzero" opacity="1" stroke="none"/>
</g>
</g>
<g opacity="1">
<g opacity="1">
<path d="M52.236 106.512C52.236 101.059 54.0359 95.8647 57.2908 91.1398C60.5457 86.415 65.2556 82.16 71.0756 78.5866C76.8957 75.0132 83.8259 72.1214 91.5213 70.123C99.2167 68.1245 107.677 67.0194 116.558 67.0194C125.44 67.0194 142.608 65.8917 156.103 66.9073C169.598 67.9229 180.154 67.4831 180.154 67.4831C180.154 67.4831 180.723 87.7216 180.791 92.1403C180.859 96.559 180.881 101.059 180.881 106.512C180.881 111.965 179.081 117.16 175.826 121.885C172.571 126.609 167.861 130.864 162.041 134.438C156.221 138.011 149.291 140.903 141.596 142.901C133.9 144.9 125.44 146.005 116.558 146.005C107.677 146.005 99.2167 144.9 91.5213 142.901C83.8259 140.903 76.8957 138.011 71.0756 134.438C65.2556 130.864 60.5457 126.609 57.2908 121.885C54.0359 117.16 52.236 111.965 52.236 106.512Z" fill="#b5c8e9" fill-rule="nonzero" opacity="1" stroke="none" vectornator:layerName="(oval)"/>
</g>
<g opacity="1">
<path d="M107.486 128.339C107.592 126.392 107.994 124.698 108.694 123.256C109.394 121.814 110.76 120.503 112.791 119.325L115.822 117.572C117.18 116.783 118.132 116.109 118.68 115.551C119.543 114.678 119.974 113.678 119.974 112.552C119.974 111.236 119.58 110.192 118.79 109.418C118.001 108.644 116.948 108.258 115.633 108.258C113.686 108.258 112.338 108.994 111.591 110.468C111.191 111.257 110.97 112.352 110.928 113.752L108.039 113.752C108.071 111.783 108.434 110.178 109.128 108.936C110.36 106.747 112.533 105.653 115.649 105.653C118.238 105.653 120.13 106.352 121.324 107.752C122.519 109.152 123.116 110.71 123.116 112.425C123.116 114.236 122.479 115.783 121.206 117.067C120.469 117.814 119.148 118.719 117.243 119.783L115.08 120.982C114.049 121.551 113.238 122.093 112.649 122.608C111.596 123.524 110.933 124.54 110.66 125.656L123.006 125.656L123.006 128.339L107.486 128.339Z" fill="#ffffff" fill-rule="nonzero" opacity="1" stroke="none"/>
<path d="M140.589 84.9319C146.633 84.9319 151.107 86.874 154.013 90.7583C156.281 93.7879 157.415 97.6644 157.415 102.388C157.415 107.499 156.118 111.749 153.523 115.136C150.478 119.113 146.136 121.102 140.496 121.102C135.229 121.102 131.088 119.362 128.074 115.881C125.386 112.525 124.042 108.284 124.042 103.157C124.042 98.5267 125.192 94.5648 127.491 91.271C130.443 87.0449 134.809 84.9319 140.589 84.9319ZM141.055 116.953C145.141 116.953 148.097 115.489 149.923 112.56C151.748 109.632 152.661 106.264 152.661 102.458C152.661 98.4335 151.608 95.194 149.503 92.7392C147.398 90.2844 144.52 89.057 140.869 89.057C137.326 89.057 134.436 90.2727 132.199 92.7043C129.962 95.1358 128.843 98.7209 128.843 103.46C128.843 107.251 129.802 110.447 131.721 113.05C133.64 115.652 136.751 116.953 141.055 116.953Z" fill="#ffffff" fill-rule="nonzero" opacity="1" stroke="none"/>
<g opacity="1">
<path d="M81.724 88.0971L85.7843 88.0971L85.7843 100.359L101.218 100.359L101.218 88.0971L105.278 88.0971L105.278 117.772L101.218 117.772L101.218 103.894L85.7843 103.894L85.7843 117.772L81.724 117.772L81.724 88.0971Z" fill="#ffffff" fill-rule="nonzero" opacity="1" stroke="none"/>
</g>
</g>
</g>
<g opacity="1">
<path d="M309.098 549.59L225.742 507.589L309.098 465.587L392.455 507.589L309.098 549.59Z" fill="#ffc925" fill-rule="nonzero" opacity="1" stroke="none"/>
<g opacity="1">
<path d="M274.257 491.257L280.434 491.257L289.581 518.177L298.662 491.257L304.774 491.257L304.774 523.097L300.678 523.097L300.678 504.305C300.678 503.655 300.692 502.578 300.721 501.076C300.75 499.573 300.765 497.962 300.765 496.242L291.683 523.097L287.413 523.097L278.267 496.242L278.267 497.217C278.267 497.998 278.285 499.186 278.321 500.783C278.357 502.38 278.375 503.554 278.375 504.305L278.375 523.097L274.257 523.097L274.257 491.257Z" fill="#ffffff" fill-rule="nonzero" opacity="1" stroke="none"/>
<path d="M320.488 499.363C322.135 499.363 323.732 499.75 325.278 500.523C326.824 501.296 328.002 502.296 328.811 503.525C329.591 504.695 330.112 506.061 330.372 507.621C330.603 508.69 330.718 510.395 330.718 512.736L313.704 512.736C313.776 515.092 314.333 516.981 315.373 518.404C316.413 519.827 318.025 520.539 320.206 520.539C322.244 520.539 323.869 519.867 325.083 518.523C325.777 517.743 326.268 516.84 326.557 515.814L330.393 515.814C330.292 516.667 329.956 517.617 329.386 518.664C328.815 519.712 328.175 520.568 327.467 521.233C326.282 522.389 324.816 523.169 323.067 523.573C322.128 523.805 321.066 523.92 319.881 523.92C316.991 523.92 314.542 522.869 312.534 520.767C310.525 518.664 309.521 515.72 309.521 511.934C309.521 508.206 310.532 505.179 312.555 502.853C314.578 500.526 317.223 499.363 320.488 499.363ZM326.709 509.637C326.55 507.946 326.181 506.595 325.603 505.584C324.534 503.705 322.75 502.766 320.25 502.766C318.458 502.766 316.955 503.413 315.742 504.706C314.528 505.999 313.885 507.643 313.813 509.637L326.709 509.637Z" fill="#ffffff" fill-rule="nonzero" opacity="1" stroke="none"/>
<path d="M336.289 493.403L340.234 493.403L340.234 499.883L343.94 499.883L343.94 503.07L340.234 503.07L340.234 518.22C340.234 519.029 340.508 519.571 341.057 519.845C341.361 520.004 341.866 520.084 342.574 520.084C342.762 520.084 342.964 520.08 343.181 520.073C343.398 520.066 343.651 520.048 343.94 520.019L343.94 523.097C343.492 523.227 343.026 523.321 342.542 523.378C342.058 523.436 341.534 523.465 340.97 523.465C339.15 523.465 337.914 522.999 337.264 522.067C336.614 521.135 336.289 519.925 336.289 518.437L336.289 503.07L333.146 503.07L333.146 499.883L336.289 499.883L336.289 493.403Z" fill="#ffffff" fill-rule="nonzero" opacity="1" stroke="none"/>
</g>
</g>
</g>
</g>
</svg>
